<svg width="35" height="30" viewBox="0 0 35 30" fill="none" xmlns="http://www.w3.org/2000/svg">
<g clip-path="url(#clip0_149_294)">
<path d="M26.2503 6.20998C23.9297 3.8303 20.7822 2.49341 17.5003 2.49341C14.2185 2.49341 11.071 3.8303 8.75035 6.20998C6.4297 8.58966 5.12598 11.8172 5.12598 15.1826C5.12598 18.548 6.4297 21.7755 8.75035 24.1552L16.4358 32.0511C16.5713 32.1912 16.7326 32.3025 16.9103 32.3784C17.088 32.4543 17.2787 32.4934 17.4712 32.4934C17.6637 32.4934 17.8543 32.4543 18.032 32.3784C18.2097 32.3025 18.371 32.1912 18.5066 32.0511L26.2503 24.0804C28.5613 21.7106 29.8596 18.4965 29.8596 15.1452C29.8596 11.7938 28.5613 8.57976 26.2503 6.20998ZM24.1649 21.9419L17.5003 28.806L10.8358 21.9419C9.5191 20.5905 8.62271 18.8692 8.2599 16.9955C7.89709 15.1218 8.08416 13.1798 8.79746 11.4151C9.51075 9.65039 10.7182 8.14215 12.2673 7.08104C13.8164 6.01992 15.6374 5.45356 17.5003 5.45356C19.3632 5.45356 21.1843 6.01992 22.7334 7.08104C24.2824 8.14215 25.4899 9.65039 26.2032 11.4151C26.9165 13.1798 27.1036 15.1218 26.7408 16.9955C26.378 18.8692 25.4816 20.5905 24.1649 21.9419ZM13.1253 10.5916C11.9481 11.8026 11.287 13.4427 11.287 15.1527C11.287 16.8626 11.9481 18.5028 13.1253 19.7137C14 20.6122 15.1139 21.2257 16.3273 21.4775C17.5408 21.7292 18.7997 21.6078 19.9461 21.1286C21.0925 20.6495 22.0754 19.8338 22.7715 18.784C23.4675 17.7341 23.8457 16.4969 23.8587 15.2274C23.8653 14.3798 23.706 13.5395 23.3904 12.7561C23.0748 11.9727 22.6092 11.2621 22.0212 10.6664C21.4432 10.0601 20.754 9.577 19.9933 9.24491C19.2325 8.91282 18.4152 8.73827 17.5884 8.73132C16.7616 8.72437 15.9417 8.88516 15.1757 9.20442C14.4098 9.52368 13.7129 9.99512 13.1253 10.5916ZM19.9649 17.5902C19.4123 18.1656 18.6819 18.5262 17.8987 18.6105C17.1154 18.6948 16.3279 18.4974 15.6709 18.0522C15.0138 17.607 14.528 16.9416 14.2964 16.1697C14.0648 15.3978 14.1019 14.5674 14.4013 13.8205C14.7007 13.0735 15.2439 12.4564 15.9379 12.0747C16.6319 11.6929 17.4336 11.5702 18.2061 11.7276C18.9785 11.8849 19.6737 12.3125 20.1728 12.9372C20.6718 13.562 20.9437 14.3451 20.942 15.1527C20.9208 16.0758 20.5431 16.9525 19.892 17.5902H19.9649Z" fill="#F7630C"/>
</g>
<defs>
<clipPath id="clip0_149_294">
<rect width="35" height="30" fill="white"/>
</clipPath>
</defs>
</svg>
